<?xml version="1.0" encoding="utf-8" standalone="no"?>
<!DOCTYPE svg PUBLIC "-//W3C//DTD SVG 1.1//EN"
  "http://www.w3.org/Graphics/SVG/1.1/DTD/svg11.dtd">
<svg xmlns:xlink="http://www.w3.org/1999/xlink" width="923.685938pt" height="578.752812pt" viewBox="0 0 923.685938 578.752812" xmlns="http://www.w3.org/2000/svg" version="1.1">
 <metadata>
  <rdf:RDF xmlns:dc="http://purl.org/dc/elements/1.1/" xmlns:cc="http://creativecommons.org/ns#" xmlns:rdf="http://www.w3.org/1999/02/22-rdf-syntax-ns#">
   <cc:Work>
    <dc:type rdf:resource="http://purl.org/dc/dcmitype/StillImage"/>
    <dc:date>2022-04-26T13:01:13.517939</dc:date>
    <dc:format>image/svg+xml</dc:format>
    <dc:creator>
     <cc:Agent>
      <dc:title>Matplotlib v3.5.1, https://matplotlib.org/</dc:title>
     </cc:Agent>
    </dc:creator>
   </cc:Work>
  </rdf:RDF>
 </metadata>
 <defs>
  <style type="text/css">*{stroke-linejoin: round; stroke-linecap: butt}</style>
 </defs>
 <g id="figure_1">
  <g id="patch_1">
   <path d="M 0 578.752812 
L 923.685938 578.752812 
L 923.685938 0 
L 0 0 
L 0 578.752812 
z
" style="fill: none"/>
  </g>
  <g id="axes_1">
   <g id="text_1">
    <!-- PDP for feature "Years_Employed" -->
    <g transform="translate(72.535938 49.182388)scale(0.15 -0.15)">
     <defs>
      <path id="ArialMT-50" d="M 494 0 
L 494 4581 
L 2222 4581 
Q 2678 4581 2919 4538 
Q 3256 4481 3484 4323 
Q 3713 4166 3852 3881 
Q 3991 3597 3991 3256 
Q 3991 2672 3619 2267 
Q 3247 1863 2275 1863 
L 1100 1863 
L 1100 0 
L 494 0 
z
M 1100 2403 
L 2284 2403 
Q 2872 2403 3119 2622 
Q 3366 2841 3366 3238 
Q 3366 3525 3220 3729 
Q 3075 3934 2838 4000 
Q 2684 4041 2272 4041 
L 1100 4041 
L 1100 2403 
z
" transform="scale(0.015625)"/>
      <path id="ArialMT-44" d="M 494 0 
L 494 4581 
L 2072 4581 
Q 2606 4581 2888 4516 
Q 3281 4425 3559 4188 
Q 3922 3881 4101 3404 
Q 4281 2928 4281 2316 
Q 4281 1794 4159 1391 
Q 4038 988 3847 723 
Q 3656 459 3429 307 
Q 3203 156 2883 78 
Q 2563 0 2147 0 
L 494 0 
z
M 1100 541 
L 2078 541 
Q 2531 541 2789 625 
Q 3047 709 3200 863 
Q 3416 1078 3536 1442 
Q 3656 1806 3656 2325 
Q 3656 3044 3420 3430 
Q 3184 3816 2847 3947 
Q 2603 4041 2063 4041 
L 1100 4041 
L 1100 541 
z
" transform="scale(0.015625)"/>
      <path id="ArialMT-20" transform="scale(0.015625)"/>
      <path id="ArialMT-66" d="M 556 0 
L 556 2881 
L 59 2881 
L 59 3319 
L 556 3319 
L 556 3672 
Q 556 4006 616 4169 
Q 697 4388 901 4523 
Q 1106 4659 1475 4659 
Q 1713 4659 2000 4603 
L 1916 4113 
Q 1741 4144 1584 4144 
Q 1328 4144 1222 4034 
Q 1116 3925 1116 3625 
L 1116 3319 
L 1763 3319 
L 1763 2881 
L 1116 2881 
L 1116 0 
L 556 0 
z
" transform="scale(0.015625)"/>
      <path id="ArialMT-6f" d="M 213 1659 
Q 213 2581 725 3025 
Q 1153 3394 1769 3394 
Q 2453 3394 2887 2945 
Q 3322 2497 3322 1706 
Q 3322 1066 3130 698 
Q 2938 331 2570 128 
Q 2203 -75 1769 -75 
Q 1072 -75 642 372 
Q 213 819 213 1659 
z
M 791 1659 
Q 791 1022 1069 705 
Q 1347 388 1769 388 
Q 2188 388 2466 706 
Q 2744 1025 2744 1678 
Q 2744 2294 2464 2611 
Q 2184 2928 1769 2928 
Q 1347 2928 1069 2612 
Q 791 2297 791 1659 
z
" transform="scale(0.015625)"/>
      <path id="ArialMT-72" d="M 416 0 
L 416 3319 
L 922 3319 
L 922 2816 
Q 1116 3169 1280 3281 
Q 1444 3394 1641 3394 
Q 1925 3394 2219 3213 
L 2025 2691 
Q 1819 2813 1613 2813 
Q 1428 2813 1281 2702 
Q 1134 2591 1072 2394 
Q 978 2094 978 1738 
L 978 0 
L 416 0 
z
" transform="scale(0.015625)"/>
      <path id="ArialMT-65" d="M 2694 1069 
L 3275 997 
Q 3138 488 2766 206 
Q 2394 -75 1816 -75 
Q 1088 -75 661 373 
Q 234 822 234 1631 
Q 234 2469 665 2931 
Q 1097 3394 1784 3394 
Q 2450 3394 2872 2941 
Q 3294 2488 3294 1666 
Q 3294 1616 3291 1516 
L 816 1516 
Q 847 969 1125 678 
Q 1403 388 1819 388 
Q 2128 388 2347 550 
Q 2566 713 2694 1069 
z
M 847 1978 
L 2700 1978 
Q 2663 2397 2488 2606 
Q 2219 2931 1791 2931 
Q 1403 2931 1139 2672 
Q 875 2413 847 1978 
z
" transform="scale(0.015625)"/>
      <path id="ArialMT-61" d="M 2588 409 
Q 2275 144 1986 34 
Q 1697 -75 1366 -75 
Q 819 -75 525 192 
Q 231 459 231 875 
Q 231 1119 342 1320 
Q 453 1522 633 1644 
Q 813 1766 1038 1828 
Q 1203 1872 1538 1913 
Q 2219 1994 2541 2106 
Q 2544 2222 2544 2253 
Q 2544 2597 2384 2738 
Q 2169 2928 1744 2928 
Q 1347 2928 1158 2789 
Q 969 2650 878 2297 
L 328 2372 
Q 403 2725 575 2942 
Q 747 3159 1072 3276 
Q 1397 3394 1825 3394 
Q 2250 3394 2515 3294 
Q 2781 3194 2906 3042 
Q 3031 2891 3081 2659 
Q 3109 2516 3109 2141 
L 3109 1391 
Q 3109 606 3145 398 
Q 3181 191 3288 0 
L 2700 0 
Q 2613 175 2588 409 
z
M 2541 1666 
Q 2234 1541 1622 1453 
Q 1275 1403 1131 1340 
Q 988 1278 909 1158 
Q 831 1038 831 891 
Q 831 666 1001 516 
Q 1172 366 1500 366 
Q 1825 366 2078 508 
Q 2331 650 2450 897 
Q 2541 1088 2541 1459 
L 2541 1666 
z
" transform="scale(0.015625)"/>
      <path id="ArialMT-74" d="M 1650 503 
L 1731 6 
Q 1494 -44 1306 -44 
Q 1000 -44 831 53 
Q 663 150 594 308 
Q 525 466 525 972 
L 525 2881 
L 113 2881 
L 113 3319 
L 525 3319 
L 525 4141 
L 1084 4478 
L 1084 3319 
L 1650 3319 
L 1650 2881 
L 1084 2881 
L 1084 941 
Q 1084 700 1114 631 
Q 1144 563 1211 522 
Q 1278 481 1403 481 
Q 1497 481 1650 503 
z
" transform="scale(0.015625)"/>
      <path id="ArialMT-75" d="M 2597 0 
L 2597 488 
Q 2209 -75 1544 -75 
Q 1250 -75 995 37 
Q 741 150 617 320 
Q 494 491 444 738 
Q 409 903 409 1263 
L 409 3319 
L 972 3319 
L 972 1478 
Q 972 1038 1006 884 
Q 1059 663 1231 536 
Q 1403 409 1656 409 
Q 1909 409 2131 539 
Q 2353 669 2445 892 
Q 2538 1116 2538 1541 
L 2538 3319 
L 3100 3319 
L 3100 0 
L 2597 0 
z
" transform="scale(0.015625)"/>
      <path id="ArialMT-22" d="M 450 2959 
L 294 3831 
L 294 4581 
L 934 4581 
L 934 3831 
L 794 2959 
L 450 2959 
z
M 1484 2959 
L 1331 3831 
L 1331 4581 
L 1972 4581 
L 1972 3831 
L 1822 2959 
L 1484 2959 
z
" transform="scale(0.015625)"/>
      <path id="ArialMT-59" d="M 1784 0 
L 1784 1941 
L 19 4581 
L 756 4581 
L 1659 3200 
Q 1909 2813 2125 2425 
Q 2331 2784 2625 3234 
L 3513 4581 
L 4219 4581 
L 2391 1941 
L 2391 0 
L 1784 0 
z
" transform="scale(0.015625)"/>
      <path id="ArialMT-73" d="M 197 991 
L 753 1078 
Q 800 744 1014 566 
Q 1228 388 1613 388 
Q 2000 388 2187 545 
Q 2375 703 2375 916 
Q 2375 1106 2209 1216 
Q 2094 1291 1634 1406 
Q 1016 1563 777 1677 
Q 538 1791 414 1992 
Q 291 2194 291 2438 
Q 291 2659 392 2848 
Q 494 3038 669 3163 
Q 800 3259 1026 3326 
Q 1253 3394 1513 3394 
Q 1903 3394 2198 3281 
Q 2494 3169 2634 2976 
Q 2775 2784 2828 2463 
L 2278 2388 
Q 2241 2644 2061 2787 
Q 1881 2931 1553 2931 
Q 1166 2931 1000 2803 
Q 834 2675 834 2503 
Q 834 2394 903 2306 
Q 972 2216 1119 2156 
Q 1203 2125 1616 2013 
Q 2213 1853 2448 1751 
Q 2684 1650 2818 1456 
Q 2953 1263 2953 975 
Q 2953 694 2789 445 
Q 2625 197 2315 61 
Q 2006 -75 1616 -75 
Q 969 -75 630 194 
Q 291 463 197 991 
z
" transform="scale(0.015625)"/>
      <path id="ArialMT-5f" d="M -97 -1272 
L -97 -866 
L 3631 -866 
L 3631 -1272 
L -97 -1272 
z
" transform="scale(0.015625)"/>
      <path id="ArialMT-45" d="M 506 0 
L 506 4581 
L 3819 4581 
L 3819 4041 
L 1113 4041 
L 1113 2638 
L 3647 2638 
L 3647 2100 
L 1113 2100 
L 1113 541 
L 3925 541 
L 3925 0 
L 506 0 
z
" transform="scale(0.015625)"/>
      <path id="ArialMT-6d" d="M 422 0 
L 422 3319 
L 925 3319 
L 925 2853 
Q 1081 3097 1340 3245 
Q 1600 3394 1931 3394 
Q 2300 3394 2536 3241 
Q 2772 3088 2869 2813 
Q 3263 3394 3894 3394 
Q 4388 3394 4653 3120 
Q 4919 2847 4919 2278 
L 4919 0 
L 4359 0 
L 4359 2091 
Q 4359 2428 4304 2576 
Q 4250 2725 4106 2815 
Q 3963 2906 3769 2906 
Q 3419 2906 3187 2673 
Q 2956 2441 2956 1928 
L 2956 0 
L 2394 0 
L 2394 2156 
Q 2394 2531 2256 2718 
Q 2119 2906 1806 2906 
Q 1569 2906 1367 2781 
Q 1166 2656 1075 2415 
Q 984 2175 984 1722 
L 984 0 
L 422 0 
z
" transform="scale(0.015625)"/>
      <path id="ArialMT-70" d="M 422 -1272 
L 422 3319 
L 934 3319 
L 934 2888 
Q 1116 3141 1344 3267 
Q 1572 3394 1897 3394 
Q 2322 3394 2647 3175 
Q 2972 2956 3137 2557 
Q 3303 2159 3303 1684 
Q 3303 1175 3120 767 
Q 2938 359 2589 142 
Q 2241 -75 1856 -75 
Q 1575 -75 1351 44 
Q 1128 163 984 344 
L 984 -1272 
L 422 -1272 
z
M 931 1641 
Q 931 1000 1190 694 
Q 1450 388 1819 388 
Q 2194 388 2461 705 
Q 2728 1022 2728 1688 
Q 2728 2322 2467 2637 
Q 2206 2953 1844 2953 
Q 1484 2953 1207 2617 
Q 931 2281 931 1641 
z
" transform="scale(0.015625)"/>
      <path id="ArialMT-6c" d="M 409 0 
L 409 4581 
L 972 4581 
L 972 0 
L 409 0 
z
" transform="scale(0.015625)"/>
      <path id="ArialMT-79" d="M 397 -1278 
L 334 -750 
Q 519 -800 656 -800 
Q 844 -800 956 -737 
Q 1069 -675 1141 -563 
Q 1194 -478 1313 -144 
Q 1328 -97 1363 -6 
L 103 3319 
L 709 3319 
L 1400 1397 
Q 1534 1031 1641 628 
Q 1738 1016 1872 1384 
L 2581 3319 
L 3144 3319 
L 1881 -56 
Q 1678 -603 1566 -809 
Q 1416 -1088 1222 -1217 
Q 1028 -1347 759 -1347 
Q 597 -1347 397 -1278 
z
" transform="scale(0.015625)"/>
      <path id="ArialMT-64" d="M 2575 0 
L 2575 419 
Q 2259 -75 1647 -75 
Q 1250 -75 917 144 
Q 584 363 401 755 
Q 219 1147 219 1656 
Q 219 2153 384 2558 
Q 550 2963 881 3178 
Q 1213 3394 1622 3394 
Q 1922 3394 2156 3267 
Q 2391 3141 2538 2938 
L 2538 4581 
L 3097 4581 
L 3097 0 
L 2575 0 
z
M 797 1656 
Q 797 1019 1065 703 
Q 1334 388 1700 388 
Q 2069 388 2326 689 
Q 2584 991 2584 1609 
Q 2584 2291 2321 2609 
Q 2059 2928 1675 2928 
Q 1300 2928 1048 2622 
Q 797 2316 797 1656 
z
" transform="scale(0.015625)"/>
     </defs>
     <use xlink:href="#ArialMT-50"/>
     <use xlink:href="#ArialMT-44" x="66.699219"/>
     <use xlink:href="#ArialMT-50" x="138.916016"/>
     <use xlink:href="#ArialMT-20" x="203.865234"/>
     <use xlink:href="#ArialMT-66" x="231.648438"/>
     <use xlink:href="#ArialMT-6f" x="259.431641"/>
     <use xlink:href="#ArialMT-72" x="315.046875"/>
     <use xlink:href="#ArialMT-20" x="348.347656"/>
     <use xlink:href="#ArialMT-66" x="376.130859"/>
     <use xlink:href="#ArialMT-65" x="403.914062"/>
     <use xlink:href="#ArialMT-61" x="459.529297"/>
     <use xlink:href="#ArialMT-74" x="515.144531"/>
     <use xlink:href="#ArialMT-75" x="542.927734"/>
     <use xlink:href="#ArialMT-72" x="598.542969"/>
     <use xlink:href="#ArialMT-65" x="631.84375"/>
     <use xlink:href="#ArialMT-20" x="687.458984"/>
     <use xlink:href="#ArialMT-22" x="715.242188"/>
     <use xlink:href="#ArialMT-59" x="750.740234"/>
     <use xlink:href="#ArialMT-65" x="808.314453"/>
     <use xlink:href="#ArialMT-61" x="863.929688"/>
     <use xlink:href="#ArialMT-72" x="919.544922"/>
     <use xlink:href="#ArialMT-73" x="952.845703"/>
     <use xlink:href="#ArialMT-5f" x="1002.845703"/>
     <use xlink:href="#ArialMT-45" x="1058.460938"/>
     <use xlink:href="#ArialMT-6d" x="1125.160156"/>
     <use xlink:href="#ArialMT-70" x="1208.460938"/>
     <use xlink:href="#ArialMT-6c" x="1264.076172"/>
     <use xlink:href="#ArialMT-6f" x="1286.292969"/>
     <use xlink:href="#ArialMT-79" x="1341.908203"/>
     <use xlink:href="#ArialMT-65" x="1391.908203"/>
     <use xlink:href="#ArialMT-64" x="1447.523438"/>
     <use xlink:href="#ArialMT-22" x="1503.138672"/>
    </g>
   </g>
   <g id="text_2">
    <!-- Number of unique grid points: 41 -->
    <g style="fill: #808080" transform="translate(72.535938 67.707054)scale(0.12 -0.12)">
     <defs>
      <path id="ArialMT-4e" d="M 488 0 
L 488 4581 
L 1109 4581 
L 3516 984 
L 3516 4581 
L 4097 4581 
L 4097 0 
L 3475 0 
L 1069 3600 
L 1069 0 
L 488 0 
z
" transform="scale(0.015625)"/>
      <path id="ArialMT-62" d="M 941 0 
L 419 0 
L 419 4581 
L 981 4581 
L 981 2947 
Q 1338 3394 1891 3394 
Q 2197 3394 2470 3270 
Q 2744 3147 2920 2923 
Q 3097 2700 3197 2384 
Q 3297 2069 3297 1709 
Q 3297 856 2875 390 
Q 2453 -75 1863 -75 
Q 1275 -75 941 416 
L 941 0 
z
M 934 1684 
Q 934 1088 1097 822 
Q 1363 388 1816 388 
Q 2184 388 2453 708 
Q 2722 1028 2722 1663 
Q 2722 2313 2464 2622 
Q 2206 2931 1841 2931 
Q 1472 2931 1203 2611 
Q 934 2291 934 1684 
z
" transform="scale(0.015625)"/>
      <path id="ArialMT-6e" d="M 422 0 
L 422 3319 
L 928 3319 
L 928 2847 
Q 1294 3394 1984 3394 
Q 2284 3394 2536 3286 
Q 2788 3178 2913 3003 
Q 3038 2828 3088 2588 
Q 3119 2431 3119 2041 
L 3119 0 
L 2556 0 
L 2556 2019 
Q 2556 2363 2490 2533 
Q 2425 2703 2258 2804 
Q 2091 2906 1866 2906 
Q 1506 2906 1245 2678 
Q 984 2450 984 1813 
L 984 0 
L 422 0 
z
" transform="scale(0.015625)"/>
      <path id="ArialMT-69" d="M 425 3934 
L 425 4581 
L 988 4581 
L 988 3934 
L 425 3934 
z
M 425 0 
L 425 3319 
L 988 3319 
L 988 0 
L 425 0 
z
" transform="scale(0.015625)"/>
      <path id="ArialMT-71" d="M 2538 -1272 
L 2538 353 
Q 2406 169 2170 47 
Q 1934 -75 1669 -75 
Q 1078 -75 651 397 
Q 225 869 225 1691 
Q 225 2191 398 2587 
Q 572 2984 901 3189 
Q 1231 3394 1625 3394 
Q 2241 3394 2594 2875 
L 2594 3319 
L 3100 3319 
L 3100 -1272 
L 2538 -1272 
z
M 803 1669 
Q 803 1028 1072 708 
Q 1341 388 1716 388 
Q 2075 388 2334 692 
Q 2594 997 2594 1619 
Q 2594 2281 2320 2615 
Q 2047 2950 1678 2950 
Q 1313 2950 1058 2639 
Q 803 2328 803 1669 
z
" transform="scale(0.015625)"/>
      <path id="ArialMT-67" d="M 319 -275 
L 866 -356 
Q 900 -609 1056 -725 
Q 1266 -881 1628 -881 
Q 2019 -881 2231 -725 
Q 2444 -569 2519 -288 
Q 2563 -116 2559 434 
Q 2191 0 1641 0 
Q 956 0 581 494 
Q 206 988 206 1678 
Q 206 2153 378 2554 
Q 550 2956 876 3175 
Q 1203 3394 1644 3394 
Q 2231 3394 2613 2919 
L 2613 3319 
L 3131 3319 
L 3131 450 
Q 3131 -325 2973 -648 
Q 2816 -972 2473 -1159 
Q 2131 -1347 1631 -1347 
Q 1038 -1347 672 -1080 
Q 306 -813 319 -275 
z
M 784 1719 
Q 784 1066 1043 766 
Q 1303 466 1694 466 
Q 2081 466 2343 764 
Q 2606 1063 2606 1700 
Q 2606 2309 2336 2618 
Q 2066 2928 1684 2928 
Q 1309 2928 1046 2623 
Q 784 2319 784 1719 
z
" transform="scale(0.015625)"/>
      <path id="ArialMT-3a" d="M 578 2678 
L 578 3319 
L 1219 3319 
L 1219 2678 
L 578 2678 
z
M 578 0 
L 578 641 
L 1219 641 
L 1219 0 
L 578 0 
z
" transform="scale(0.015625)"/>
      <path id="ArialMT-34" d="M 2069 0 
L 2069 1097 
L 81 1097 
L 81 1613 
L 2172 4581 
L 2631 4581 
L 2631 1613 
L 3250 1613 
L 3250 1097 
L 2631 1097 
L 2631 0 
L 2069 0 
z
M 2069 1613 
L 2069 3678 
L 634 1613 
L 2069 1613 
z
" transform="scale(0.015625)"/>
      <path id="ArialMT-31" d="M 2384 0 
L 1822 0 
L 1822 3584 
Q 1619 3391 1289 3197 
Q 959 3003 697 2906 
L 697 3450 
Q 1169 3672 1522 3987 
Q 1875 4303 2022 4600 
L 2384 4600 
L 2384 0 
z
" transform="scale(0.015625)"/>
     </defs>
     <use xlink:href="#ArialMT-4e"/>
     <use xlink:href="#ArialMT-75" x="72.216797"/>
     <use xlink:href="#ArialMT-6d" x="127.832031"/>
     <use xlink:href="#ArialMT-62" x="211.132812"/>
     <use xlink:href="#ArialMT-65" x="266.748047"/>
     <use xlink:href="#ArialMT-72" x="322.363281"/>
     <use xlink:href="#ArialMT-20" x="355.664062"/>
     <use xlink:href="#ArialMT-6f" x="383.447266"/>
     <use xlink:href="#ArialMT-66" x="439.0625"/>
     <use xlink:href="#ArialMT-20" x="466.845703"/>
     <use xlink:href="#ArialMT-75" x="494.628906"/>
     <use xlink:href="#ArialMT-6e" x="550.244141"/>
     <use xlink:href="#ArialMT-69" x="605.859375"/>
     <use xlink:href="#ArialMT-71" x="628.076172"/>
     <use xlink:href="#ArialMT-75" x="683.691406"/>
     <use xlink:href="#ArialMT-65" x="739.306641"/>
     <use xlink:href="#ArialMT-20" x="794.921875"/>
     <use xlink:href="#ArialMT-67" x="822.705078"/>
     <use xlink:href="#ArialMT-72" x="878.320312"/>
     <use xlink:href="#ArialMT-69" x="911.621094"/>
     <use xlink:href="#ArialMT-64" x="933.837891"/>
     <use xlink:href="#ArialMT-20" x="989.453125"/>
     <use xlink:href="#ArialMT-70" x="1017.236328"/>
     <use xlink:href="#ArialMT-6f" x="1072.851562"/>
     <use xlink:href="#ArialMT-69" x="1128.466797"/>
     <use xlink:href="#ArialMT-6e" x="1150.683594"/>
     <use xlink:href="#ArialMT-74" x="1206.298828"/>
     <use xlink:href="#ArialMT-73" x="1234.082031"/>
     <use xlink:href="#ArialMT-3a" x="1284.082031"/>
     <use xlink:href="#ArialMT-20" x="1311.865234"/>
     <use xlink:href="#ArialMT-34" x="1339.648438"/>
     <use xlink:href="#ArialMT-31" x="1395.263672"/>
    </g>
   </g>
  </g>
  <g id="axes_2">
   <g id="PolyCollection_1">
    <defs>
     <path id="mcd55d4e666" d="M 72.535938 -336.871702 
L 72.535938 -336.871702 
L 74.209938 -336.86781 
L 76.093187 -336.862371 
L 77.767188 -336.856595 
L 79.441187 -336.849933 
L 81.529417 -336.840385 
L 82.998438 -336.832845 
L 86.555688 -336.811777 
L 88.502994 -336.798564 
L 93.460938 -336.759573 
L 94.421779 -336.751131 
L 100.366188 -336.692529 
L 106.14832 -336.625055 
L 112.891295 -336.53342 
L 114.385938 -336.511232 
L 117.943187 -336.455702 
L 123.977274 -336.352787 
L 127.466198 -336.28831 
L 134.935142 -336.138154 
L 135.310938 -336.130166 
L 138.142218 -336.068653 
L 145.773438 -335.891287 
L 152.947723 -335.709366 
L 156.235938 -335.621149 
L 159.793187 -335.522336 
L 168.372437 -335.269826 
L 177.160937 -334.990879 
L 198.085938 -334.248939 
L 204.581228 -333.997951 
L 212.605325 -333.675605 
L 219.010938 -333.409237 
L 239.935938 -332.492114 
L 251.935784 -331.942221 
L 263.102902 -331.42257 
L 281.785937 -330.556419 
L 294.063361 -330.006119 
L 344.560938 -328.213993 
L 373.638147 -327.750172 
L 448.57954 -328.837736 
L 511.533897 -332.005805 
L 909.535938 -390.145114 
L 909.535938 -196.002257 
L 909.535938 -196.002257 
L 511.533897 -297.552698 
L 448.57954 -306.771969 
L 373.638147 -315.078027 
L 344.560938 -317.440983 
L 294.063361 -320.615519 
L 281.785937 -321.286064 
L 263.102902 -322.289073 
L 251.935784 -322.893556 
L 239.935938 -323.557677 
L 219.010938 -324.773204 
L 212.605325 -325.163821 
L 204.581228 -325.667272 
L 198.085938 -326.087072 
L 177.160937 -327.520637 
L 168.372437 -328.162158 
L 159.793187 -328.812136 
L 156.235938 -329.088678 
L 152.947723 -329.348032 
L 145.773438 -329.926479 
L 138.142218 -330.560987 
L 135.310938 -330.801501 
L 134.935142 -330.833634 
L 127.466198 -331.482508 
L 123.977274 -331.792336 
L 117.943187 -332.338381 
L 114.385938 -332.666384 
L 112.891295 -332.805555 
L 106.14832 -333.443444 
L 100.366188 -334.003579 
L 94.421779 -334.592172 
L 93.460938 -334.688528 
L 88.502994 -335.191133 
L 86.555688 -335.391021 
L 82.998438 -335.759795 
L 81.529417 -335.913455 
L 79.441187 -336.133266 
L 77.767188 -336.310647 
L 76.093187 -336.489073 
L 74.209938 -336.691052 
L 72.535938 -336.871702 
z
" style="stroke: #66c2d7; stroke-opacity: 0.2"/>
    </defs>
    <g clip-path="url(#pf0e4b42fb4)">
     <use xlink:href="#mcd55d4e666" x="0" y="578.752812" style="fill: #66c2d7; fill-opacity: 0.2; stroke: #66c2d7; stroke-opacity: 0.2"/>
    </g>
   </g>
   <g id="matplotlib.axis_1">
    <g id="xtick_1">
     <g id="line2d_1">
      <path d="M 72.535938 523.62 
L 72.535938 135.334286 
" clip-path="url(#pf0e4b42fb4)" style="fill: none; stroke-dasharray: 1.85,0.8; stroke-dashoffset: 0; stroke: #000000; stroke-opacity: 0.3; stroke-width: 0.5"/>
     </g>
     <g id="line2d_2">
      <defs>
       <path id="mf07a094c21" d="M 0 0 
L 0 3.5 
" style="stroke: #9e9e9e; stroke-width: 0.8"/>
      </defs>
      <g>
       <use xlink:href="#mf07a094c21" x="72.535938" y="523.62" style="fill: #9e9e9e; stroke: #9e9e9e; stroke-width: 0.8"/>
      </g>
     </g>
     <g id="text_3">
      <!-- 0.0 -->
      <g style="fill: #424242" transform="translate(65.585938 537.777812)scale(0.1 -0.1)">
       <defs>
        <path id="ArialMT-30" d="M 266 2259 
Q 266 3072 433 3567 
Q 600 4063 929 4331 
Q 1259 4600 1759 4600 
Q 2128 4600 2406 4451 
Q 2684 4303 2865 4023 
Q 3047 3744 3150 3342 
Q 3253 2941 3253 2259 
Q 3253 1453 3087 958 
Q 2922 463 2592 192 
Q 2263 -78 1759 -78 
Q 1097 -78 719 397 
Q 266 969 266 2259 
z
M 844 2259 
Q 844 1131 1108 757 
Q 1372 384 1759 384 
Q 2147 384 2411 759 
Q 2675 1134 2675 2259 
Q 2675 3391 2411 3762 
Q 2147 4134 1753 4134 
Q 1366 4134 1134 3806 
Q 844 3388 844 2259 
z
" transform="scale(0.015625)"/>
        <path id="ArialMT-2e" d="M 581 0 
L 581 641 
L 1222 641 
L 1222 0 
L 581 0 
z
" transform="scale(0.015625)"/>
       </defs>
       <use xlink:href="#ArialMT-30"/>
       <use xlink:href="#ArialMT-2e" x="55.615234"/>
       <use xlink:href="#ArialMT-30" x="83.398438"/>
      </g>
     </g>
    </g>
    <g id="xtick_2">
     <g id="line2d_3">
      <path d="M 239.935938 523.62 
L 239.935938 135.334286 
" clip-path="url(#pf0e4b42fb4)" style="fill: none; stroke-dasharray: 1.85,0.8; stroke-dashoffset: 0; stroke: #000000; stroke-opacity: 0.3; stroke-width: 0.5"/>
     </g>
     <g id="line2d_4">
      <g>
       <use xlink:href="#mf07a094c21" x="239.935938" y="523.62" style="fill: #9e9e9e; stroke: #9e9e9e; stroke-width: 0.8"/>
      </g>
     </g>
     <g id="text_4">
      <!-- 0.2 -->
      <g style="fill: #424242" transform="translate(232.985938 537.777812)scale(0.1 -0.1)">
       <defs>
        <path id="ArialMT-32" d="M 3222 541 
L 3222 0 
L 194 0 
Q 188 203 259 391 
Q 375 700 629 1000 
Q 884 1300 1366 1694 
Q 2113 2306 2375 2664 
Q 2638 3022 2638 3341 
Q 2638 3675 2398 3904 
Q 2159 4134 1775 4134 
Q 1369 4134 1125 3890 
Q 881 3647 878 3216 
L 300 3275 
Q 359 3922 746 4261 
Q 1134 4600 1788 4600 
Q 2447 4600 2831 4234 
Q 3216 3869 3216 3328 
Q 3216 3053 3103 2787 
Q 2991 2522 2730 2228 
Q 2469 1934 1863 1422 
Q 1356 997 1212 845 
Q 1069 694 975 541 
L 3222 541 
z
" transform="scale(0.015625)"/>
       </defs>
       <use xlink:href="#ArialMT-30"/>
       <use xlink:href="#ArialMT-2e" x="55.615234"/>
       <use xlink:href="#ArialMT-32" x="83.398438"/>
      </g>
     </g>
    </g>
    <g id="xtick_3">
     <g id="line2d_5">
      <path d="M 407.335938 523.62 
L 407.335938 135.334286 
" clip-path="url(#pf0e4b42fb4)" style="fill: none; stroke-dasharray: 1.85,0.8; stroke-dashoffset: 0; stroke: #000000; stroke-opacity: 0.3; stroke-width: 0.5"/>
     </g>
     <g id="line2d_6">
      <g>
       <use xlink:href="#mf07a094c21" x="407.335938" y="523.62" style="fill: #9e9e9e; stroke: #9e9e9e; stroke-width: 0.8"/>
      </g>
     </g>
     <g id="text_5">
      <!-- 0.4 -->
      <g style="fill: #424242" transform="translate(400.385938 537.777812)scale(0.1 -0.1)">
       <use xlink:href="#ArialMT-30"/>
       <use xlink:href="#ArialMT-2e" x="55.615234"/>
       <use xlink:href="#ArialMT-34" x="83.398438"/>
      </g>
     </g>
    </g>
    <g id="xtick_4">
     <g id="line2d_7">
      <path d="M 574.735938 523.62 
L 574.735938 135.334286 
" clip-path="url(#pf0e4b42fb4)" style="fill: none; stroke-dasharray: 1.85,0.8; stroke-dashoffset: 0; stroke: #000000; stroke-opacity: 0.3; stroke-width: 0.5"/>
     </g>
     <g id="line2d_8">
      <g>
       <use xlink:href="#mf07a094c21" x="574.735938" y="523.62" style="fill: #9e9e9e; stroke: #9e9e9e; stroke-width: 0.8"/>
      </g>
     </g>
     <g id="text_6">
      <!-- 0.6 -->
      <g style="fill: #424242" transform="translate(567.785938 537.777812)scale(0.1 -0.1)">
       <defs>
        <path id="ArialMT-36" d="M 3184 3459 
L 2625 3416 
Q 2550 3747 2413 3897 
Q 2184 4138 1850 4138 
Q 1581 4138 1378 3988 
Q 1113 3794 959 3422 
Q 806 3050 800 2363 
Q 1003 2672 1297 2822 
Q 1591 2972 1913 2972 
Q 2475 2972 2870 2558 
Q 3266 2144 3266 1488 
Q 3266 1056 3080 686 
Q 2894 316 2569 119 
Q 2244 -78 1831 -78 
Q 1128 -78 684 439 
Q 241 956 241 2144 
Q 241 3472 731 4075 
Q 1159 4600 1884 4600 
Q 2425 4600 2770 4297 
Q 3116 3994 3184 3459 
z
M 888 1484 
Q 888 1194 1011 928 
Q 1134 663 1356 523 
Q 1578 384 1822 384 
Q 2178 384 2434 671 
Q 2691 959 2691 1453 
Q 2691 1928 2437 2201 
Q 2184 2475 1800 2475 
Q 1419 2475 1153 2201 
Q 888 1928 888 1484 
z
" transform="scale(0.015625)"/>
       </defs>
       <use xlink:href="#ArialMT-30"/>
       <use xlink:href="#ArialMT-2e" x="55.615234"/>
       <use xlink:href="#ArialMT-36" x="83.398438"/>
      </g>
     </g>
    </g>
    <g id="xtick_5">
     <g id="line2d_9">
      <path d="M 742.135938 523.62 
L 742.135938 135.334286 
" clip-path="url(#pf0e4b42fb4)" style="fill: none; stroke-dasharray: 1.85,0.8; stroke-dashoffset: 0; stroke: #000000; stroke-opacity: 0.3; stroke-width: 0.5"/>
     </g>
     <g id="line2d_10">
      <g>
       <use xlink:href="#mf07a094c21" x="742.135938" y="523.62" style="fill: #9e9e9e; stroke: #9e9e9e; stroke-width: 0.8"/>
      </g>
     </g>
     <g id="text_7">
      <!-- 0.8 -->
      <g style="fill: #424242" transform="translate(735.185938 537.777812)scale(0.1 -0.1)">
       <defs>
        <path id="ArialMT-38" d="M 1131 2484 
Q 781 2613 612 2850 
Q 444 3088 444 3419 
Q 444 3919 803 4259 
Q 1163 4600 1759 4600 
Q 2359 4600 2725 4251 
Q 3091 3903 3091 3403 
Q 3091 3084 2923 2848 
Q 2756 2613 2416 2484 
Q 2838 2347 3058 2040 
Q 3278 1734 3278 1309 
Q 3278 722 2862 322 
Q 2447 -78 1769 -78 
Q 1091 -78 675 323 
Q 259 725 259 1325 
Q 259 1772 486 2073 
Q 713 2375 1131 2484 
z
M 1019 3438 
Q 1019 3113 1228 2906 
Q 1438 2700 1772 2700 
Q 2097 2700 2305 2904 
Q 2513 3109 2513 3406 
Q 2513 3716 2298 3927 
Q 2084 4138 1766 4138 
Q 1444 4138 1231 3931 
Q 1019 3725 1019 3438 
z
M 838 1322 
Q 838 1081 952 856 
Q 1066 631 1291 507 
Q 1516 384 1775 384 
Q 2178 384 2440 643 
Q 2703 903 2703 1303 
Q 2703 1709 2433 1975 
Q 2163 2241 1756 2241 
Q 1359 2241 1098 1978 
Q 838 1716 838 1322 
z
" transform="scale(0.015625)"/>
       </defs>
       <use xlink:href="#ArialMT-30"/>
       <use xlink:href="#ArialMT-2e" x="55.615234"/>
       <use xlink:href="#ArialMT-38" x="83.398438"/>
      </g>
     </g>
    </g>
    <g id="xtick_6">
     <g id="line2d_11">
      <path d="M 909.535938 523.62 
L 909.535938 135.334286 
" clip-path="url(#pf0e4b42fb4)" style="fill: none; stroke-dasharray: 1.85,0.8; stroke-dashoffset: 0; stroke: #000000; stroke-opacity: 0.3; stroke-width: 0.5"/>
     </g>
     <g id="line2d_12">
      <g>
       <use xlink:href="#mf07a094c21" x="909.535938" y="523.62" style="fill: #9e9e9e; stroke: #9e9e9e; stroke-width: 0.8"/>
      </g>
     </g>
     <g id="text_8">
      <!-- 1.0 -->
      <g style="fill: #424242" transform="translate(902.585938 537.777812)scale(0.1 -0.1)">
       <use xlink:href="#ArialMT-31"/>
       <use xlink:href="#ArialMT-2e" x="55.615234"/>
       <use xlink:href="#ArialMT-30" x="83.398438"/>
      </g>
     </g>
    </g>
    <g id="text_9">
     <!-- Years_Employed -->
     <g transform="translate(378.182031 565.23875)scale(0.3 -0.3)">
      <use xlink:href="#ArialMT-59"/>
      <use xlink:href="#ArialMT-65" x="57.574219"/>
      <use xlink:href="#ArialMT-61" x="113.189453"/>
      <use xlink:href="#ArialMT-72" x="168.804688"/>
      <use xlink:href="#ArialMT-73" x="202.105469"/>
      <use xlink:href="#ArialMT-5f" x="252.105469"/>
      <use xlink:href="#ArialMT-45" x="307.720703"/>
      <use xlink:href="#ArialMT-6d" x="374.419922"/>
      <use xlink:href="#ArialMT-70" x="457.720703"/>
      <use xlink:href="#ArialMT-6c" x="513.335938"/>
      <use xlink:href="#ArialMT-6f" x="535.552734"/>
      <use xlink:href="#ArialMT-79" x="591.167969"/>
      <use xlink:href="#ArialMT-65" x="641.167969"/>
      <use xlink:href="#ArialMT-64" x="696.783203"/>
     </g>
    </g>
   </g>
   <g id="matplotlib.axis_2">
    <g id="ytick_1">
     <g id="line2d_13">
      <path d="M 72.535938 495.47713 
L 909.535938 495.47713 
" clip-path="url(#pf0e4b42fb4)" style="fill: none; stroke-dasharray: 1.85,0.8; stroke-dashoffset: 0; stroke: #000000; stroke-opacity: 0.3; stroke-width: 0.5"/>
     </g>
     <g id="line2d_14">
      <defs>
       <path id="ma874acb1d3" d="M 0 0 
L -3.5 0 
" style="stroke: #9e9e9e; stroke-width: 0.8"/>
      </defs>
      <g>
       <use xlink:href="#ma874acb1d3" x="72.535938" y="495.47713" style="fill: #9e9e9e; stroke: #9e9e9e; stroke-width: 0.8"/>
      </g>
     </g>
     <g id="text_10">
      <!-- −0.06 -->
      <g style="fill: #424242" transform="translate(40.234375 499.056036)scale(0.1 -0.1)">
       <defs>
        <path id="ArialMT-2212" d="M 3381 1997 
L 356 1997 
L 356 2522 
L 3381 2522 
L 3381 1997 
z
" transform="scale(0.015625)"/>
       </defs>
       <use xlink:href="#ArialMT-2212"/>
       <use xlink:href="#ArialMT-30" x="58.398438"/>
       <use xlink:href="#ArialMT-2e" x="114.013672"/>
       <use xlink:href="#ArialMT-30" x="141.796875"/>
       <use xlink:href="#ArialMT-36" x="197.412109"/>
      </g>
     </g>
    </g>
    <g id="ytick_2">
     <g id="line2d_15">
      <path d="M 72.535938 410.945124 
L 909.535938 410.945124 
" clip-path="url(#pf0e4b42fb4)" style="fill: none; stroke-dasharray: 1.85,0.8; stroke-dashoffset: 0; stroke: #000000; stroke-opacity: 0.3; stroke-width: 0.5"/>
     </g>
     <g id="line2d_16">
      <g>
       <use xlink:href="#ma874acb1d3" x="72.535938" y="410.945124" style="fill: #9e9e9e; stroke: #9e9e9e; stroke-width: 0.8"/>
      </g>
     </g>
     <g id="text_11">
      <!-- −0.04 -->
      <g style="fill: #424242" transform="translate(40.234375 414.52403)scale(0.1 -0.1)">
       <use xlink:href="#ArialMT-2212"/>
       <use xlink:href="#ArialMT-30" x="58.398438"/>
       <use xlink:href="#ArialMT-2e" x="114.013672"/>
       <use xlink:href="#ArialMT-30" x="141.796875"/>
       <use xlink:href="#ArialMT-34" x="197.412109"/>
      </g>
     </g>
    </g>
    <g id="ytick_3">
     <g id="line2d_17">
      <path d="M 72.535938 326.413117 
L 909.535938 326.413117 
" clip-path="url(#pf0e4b42fb4)" style="fill: none; stroke-dasharray: 1.85,0.8; stroke-dashoffset: 0; stroke: #000000; stroke-opacity: 0.3; stroke-width: 0.5"/>
     </g>
     <g id="line2d_18">
      <g>
       <use xlink:href="#ma874acb1d3" x="72.535938" y="326.413117" style="fill: #9e9e9e; stroke: #9e9e9e; stroke-width: 0.8"/>
      </g>
     </g>
     <g id="text_12">
      <!-- −0.02 -->
      <g style="fill: #424242" transform="translate(40.234375 329.992024)scale(0.1 -0.1)">
       <use xlink:href="#ArialMT-2212"/>
       <use xlink:href="#ArialMT-30" x="58.398438"/>
       <use xlink:href="#ArialMT-2e" x="114.013672"/>
       <use xlink:href="#ArialMT-30" x="141.796875"/>
       <use xlink:href="#ArialMT-32" x="197.412109"/>
      </g>
     </g>
    </g>
    <g id="ytick_4">
     <g id="line2d_19">
      <path d="M 72.535938 241.881111 
L 909.535938 241.881111 
" clip-path="url(#pf0e4b42fb4)" style="fill: none; stroke-dasharray: 1.85,0.8; stroke-dashoffset: 0; stroke: #000000; stroke-opacity: 0.3; stroke-width: 0.5"/>
     </g>
     <g id="line2d_20">
      <g>
       <use xlink:href="#ma874acb1d3" x="72.535938" y="241.881111" style="fill: #9e9e9e; stroke: #9e9e9e; stroke-width: 0.8"/>
      </g>
     </g>
     <g id="text_13">
      <!-- 0.00 -->
      <g style="fill: #424242" transform="translate(46.075 245.460017)scale(0.1 -0.1)">
       <use xlink:href="#ArialMT-30"/>
       <use xlink:href="#ArialMT-2e" x="55.615234"/>
       <use xlink:href="#ArialMT-30" x="83.398438"/>
       <use xlink:href="#ArialMT-30" x="139.013672"/>
      </g>
     </g>
    </g>
    <g id="ytick_5">
     <g id="line2d_21">
      <path d="M 72.535938 157.349104 
L 909.535938 157.349104 
" clip-path="url(#pf0e4b42fb4)" style="fill: none; stroke-dasharray: 1.85,0.8; stroke-dashoffset: 0; stroke: #000000; stroke-opacity: 0.3; stroke-width: 0.5"/>
     </g>
     <g id="line2d_22">
      <g>
       <use xlink:href="#ma874acb1d3" x="72.535938" y="157.349104" style="fill: #9e9e9e; stroke: #9e9e9e; stroke-width: 0.8"/>
      </g>
     </g>
     <g id="text_14">
      <!-- 0.02 -->
      <g style="fill: #424242" transform="translate(46.075 160.928011)scale(0.1 -0.1)">
       <use xlink:href="#ArialMT-30"/>
       <use xlink:href="#ArialMT-2e" x="55.615234"/>
       <use xlink:href="#ArialMT-30" x="83.398438"/>
       <use xlink:href="#ArialMT-32" x="139.013672"/>
      </g>
     </g>
    </g>
    <g id="text_15">
     <!-- Target -->
     <g transform="translate(29.995312 375.892768)rotate(-90)scale(0.3 -0.3)">
      <defs>
       <path id="DejaVuSans-54" d="M -19 4666 
L 3928 4666 
L 3928 4134 
L 2272 4134 
L 2272 0 
L 1638 0 
L 1638 4134 
L -19 4134 
L -19 4666 
z
" transform="scale(0.015625)"/>
       <path id="DejaVuSans-61" d="M 2194 1759 
Q 1497 1759 1228 1600 
Q 959 1441 959 1056 
Q 959 750 1161 570 
Q 1363 391 1709 391 
Q 2188 391 2477 730 
Q 2766 1069 2766 1631 
L 2766 1759 
L 2194 1759 
z
M 3341 1997 
L 3341 0 
L 2766 0 
L 2766 531 
Q 2569 213 2275 61 
Q 1981 -91 1556 -91 
Q 1019 -91 701 211 
Q 384 513 384 1019 
Q 384 1609 779 1909 
Q 1175 2209 1959 2209 
L 2766 2209 
L 2766 2266 
Q 2766 2663 2505 2880 
Q 2244 3097 1772 3097 
Q 1472 3097 1187 3025 
Q 903 2953 641 2809 
L 641 3341 
Q 956 3463 1253 3523 
Q 1550 3584 1831 3584 
Q 2591 3584 2966 3190 
Q 3341 2797 3341 1997 
z
" transform="scale(0.015625)"/>
       <path id="DejaVuSans-72" d="M 2631 2963 
Q 2534 3019 2420 3045 
Q 2306 3072 2169 3072 
Q 1681 3072 1420 2755 
Q 1159 2438 1159 1844 
L 1159 0 
L 581 0 
L 581 3500 
L 1159 3500 
L 1159 2956 
Q 1341 3275 1631 3429 
Q 1922 3584 2338 3584 
Q 2397 3584 2469 3576 
Q 2541 3569 2628 3553 
L 2631 2963 
z
" transform="scale(0.015625)"/>
       <path id="DejaVuSans-67" d="M 2906 1791 
Q 2906 2416 2648 2759 
Q 2391 3103 1925 3103 
Q 1463 3103 1205 2759 
Q 947 2416 947 1791 
Q 947 1169 1205 825 
Q 1463 481 1925 481 
Q 2391 481 2648 825 
Q 2906 1169 2906 1791 
z
M 3481 434 
Q 3481 -459 3084 -895 
Q 2688 -1331 1869 -1331 
Q 1566 -1331 1297 -1286 
Q 1028 -1241 775 -1147 
L 775 -588 
Q 1028 -725 1275 -790 
Q 1522 -856 1778 -856 
Q 2344 -856 2625 -561 
Q 2906 -266 2906 331 
L 2906 616 
Q 2728 306 2450 153 
Q 2172 0 1784 0 
Q 1141 0 747 490 
Q 353 981 353 1791 
Q 353 2603 747 3093 
Q 1141 3584 1784 3584 
Q 2172 3584 2450 3431 
Q 2728 3278 2906 2969 
L 2906 3500 
L 3481 3500 
L 3481 434 
z
" transform="scale(0.015625)"/>
       <path id="DejaVuSans-65" d="M 3597 1894 
L 3597 1613 
L 953 1613 
Q 991 1019 1311 708 
Q 1631 397 2203 397 
Q 2534 397 2845 478 
Q 3156 559 3463 722 
L 3463 178 
Q 3153 47 2828 -22 
Q 2503 -91 2169 -91 
Q 1331 -91 842 396 
Q 353 884 353 1716 
Q 353 2575 817 3079 
Q 1281 3584 2069 3584 
Q 2775 3584 3186 3129 
Q 3597 2675 3597 1894 
z
M 3022 2063 
Q 3016 2534 2758 2815 
Q 2500 3097 2075 3097 
Q 1594 3097 1305 2825 
Q 1016 2553 972 2059 
L 3022 2063 
z
" transform="scale(0.015625)"/>
       <path id="DejaVuSans-74" d="M 1172 4494 
L 1172 3500 
L 2356 3500 
L 2356 3053 
L 1172 3053 
L 1172 1153 
Q 1172 725 1289 603 
Q 1406 481 1766 481 
L 2356 481 
L 2356 0 
L 1766 0 
Q 1100 0 847 248 
Q 594 497 594 1153 
L 594 3053 
L 172 3053 
L 172 3500 
L 594 3500 
L 594 4494 
L 1172 4494 
z
" transform="scale(0.015625)"/>
      </defs>
      <use xlink:href="#DejaVuSans-54"/>
      <use xlink:href="#DejaVuSans-61" x="44.583984"/>
      <use xlink:href="#DejaVuSans-72" x="105.863281"/>
      <use xlink:href="#DejaVuSans-67" x="145.226562"/>
      <use xlink:href="#DejaVuSans-65" x="208.703125"/>
      <use xlink:href="#DejaVuSans-74" x="270.226562"/>
     </g>
    </g>
   </g>
   <g id="line2d_23">
    <path d="M 72.535938 241.881111 
L 74.209938 241.973382 
L 76.093187 242.077091 
L 77.767188 242.169192 
L 79.441187 242.261213 
L 81.529417 242.375893 
L 82.998438 242.456493 
L 86.555688 242.651413 
L 88.502994 242.757964 
L 93.460938 243.028762 
L 94.421779 243.081161 
L 100.366188 243.404758 
L 106.14832 243.718563 
L 112.891295 244.083325 
L 114.385938 244.164005 
L 117.943187 244.355771 
L 123.977274 244.680251 
L 127.466198 244.867404 
L 134.935142 245.266918 
L 135.310938 245.286979 
L 138.142218 245.437993 
L 145.773438 245.84393 
L 152.947723 246.224113 
L 156.235938 246.397899 
L 159.793187 246.585577 
L 168.372437 247.036821 
L 177.160937 247.497054 
L 198.085938 248.584807 
L 204.581228 248.920201 
L 212.605325 249.3331 
L 219.010938 249.661592 
L 239.935938 250.727917 
L 251.935784 251.334924 
L 263.102902 251.896991 
L 281.785937 252.831571 
L 294.063361 253.441993 
L 344.560938 255.925324 
L 373.638147 257.338713 
L 448.57954 260.94796 
L 511.533897 263.973561 
L 909.535938 285.679127 
" clip-path="url(#pf0e4b42fb4)" style="fill: none; stroke: #1a4e5d; stroke-width: 1.5; stroke-linecap: square"/>
    <defs>
     <path id="me8056dbb7c" d="M 0 1.75 
C 0.464105 1.75 0.909265 1.565609 1.237437 1.237437 
C 1.565609 0.909265 1.75 0.464105 1.75 0 
C 1.75 -0.464105 1.565609 -0.909265 1.237437 -1.237437 
C 0.909265 -1.565609 0.464105 -1.75 0 -1.75 
C -0.464105 -1.75 -0.909265 -1.565609 -1.237437 -1.237437 
C -1.565609 -0.909265 -1.75 -0.464105 -1.75 0 
C -1.75 0.464105 -1.565609 0.909265 -1.237437 1.237437 
C -0.909265 1.565609 -0.464105 1.75 0 1.75 
z
" style="stroke: #1a4e5d"/>
    </defs>
    <g clip-path="url(#pf0e4b42fb4)">
     <use xlink:href="#me8056dbb7c" x="72.535938" y="241.881111" style="fill: #1a4e5d; stroke: #1a4e5d"/>
     <use xlink:href="#me8056dbb7c" x="74.209938" y="241.973382" style="fill: #1a4e5d; stroke: #1a4e5d"/>
     <use xlink:href="#me8056dbb7c" x="76.093187" y="242.077091" style="fill: #1a4e5d; stroke: #1a4e5d"/>
     <use xlink:href="#me8056dbb7c" x="77.767188" y="242.169192" style="fill: #1a4e5d; stroke: #1a4e5d"/>
     <use xlink:href="#me8056dbb7c" x="79.441187" y="242.261213" style="fill: #1a4e5d; stroke: #1a4e5d"/>
     <use xlink:href="#me8056dbb7c" x="81.529417" y="242.375893" style="fill: #1a4e5d; stroke: #1a4e5d"/>
     <use xlink:href="#me8056dbb7c" x="82.998438" y="242.456493" style="fill: #1a4e5d; stroke: #1a4e5d"/>
     <use xlink:href="#me8056dbb7c" x="86.555688" y="242.651413" style="fill: #1a4e5d; stroke: #1a4e5d"/>
     <use xlink:href="#me8056dbb7c" x="88.502994" y="242.757964" style="fill: #1a4e5d; stroke: #1a4e5d"/>
     <use xlink:href="#me8056dbb7c" x="93.460938" y="243.028762" style="fill: #1a4e5d; stroke: #1a4e5d"/>
     <use xlink:href="#me8056dbb7c" x="94.421779" y="243.081161" style="fill: #1a4e5d; stroke: #1a4e5d"/>
     <use xlink:href="#me8056dbb7c" x="100.366188" y="243.404758" style="fill: #1a4e5d; stroke: #1a4e5d"/>
     <use xlink:href="#me8056dbb7c" x="106.14832" y="243.718563" style="fill: #1a4e5d; stroke: #1a4e5d"/>
     <use xlink:href="#me8056dbb7c" x="112.891295" y="244.083325" style="fill: #1a4e5d; stroke: #1a4e5d"/>
     <use xlink:href="#me8056dbb7c" x="114.385938" y="244.164005" style="fill: #1a4e5d; stroke: #1a4e5d"/>
     <use xlink:href="#me8056dbb7c" x="117.943187" y="244.355771" style="fill: #1a4e5d; stroke: #1a4e5d"/>
     <use xlink:href="#me8056dbb7c" x="123.977274" y="244.680251" style="fill: #1a4e5d; stroke: #1a4e5d"/>
     <use xlink:href="#me8056dbb7c" x="127.466198" y="244.867404" style="fill: #1a4e5d; stroke: #1a4e5d"/>
     <use xlink:href="#me8056dbb7c" x="134.935142" y="245.266918" style="fill: #1a4e5d; stroke: #1a4e5d"/>
     <use xlink:href="#me8056dbb7c" x="135.310938" y="245.286979" style="fill: #1a4e5d; stroke: #1a4e5d"/>
     <use xlink:href="#me8056dbb7c" x="138.142218" y="245.437993" style="fill: #1a4e5d; stroke: #1a4e5d"/>
     <use xlink:href="#me8056dbb7c" x="145.773438" y="245.84393" style="fill: #1a4e5d; stroke: #1a4e5d"/>
     <use xlink:href="#me8056dbb7c" x="152.947723" y="246.224113" style="fill: #1a4e5d; stroke: #1a4e5d"/>
     <use xlink:href="#me8056dbb7c" x="156.235938" y="246.397899" style="fill: #1a4e5d; stroke: #1a4e5d"/>
     <use xlink:href="#me8056dbb7c" x="159.793187" y="246.585577" style="fill: #1a4e5d; stroke: #1a4e5d"/>
     <use xlink:href="#me8056dbb7c" x="168.372437" y="247.036821" style="fill: #1a4e5d; stroke: #1a4e5d"/>
     <use xlink:href="#me8056dbb7c" x="177.160937" y="247.497054" style="fill: #1a4e5d; stroke: #1a4e5d"/>
     <use xlink:href="#me8056dbb7c" x="198.085938" y="248.584807" style="fill: #1a4e5d; stroke: #1a4e5d"/>
     <use xlink:href="#me8056dbb7c" x="204.581228" y="248.920201" style="fill: #1a4e5d; stroke: #1a4e5d"/>
     <use xlink:href="#me8056dbb7c" x="212.605325" y="249.3331" style="fill: #1a4e5d; stroke: #1a4e5d"/>
     <use xlink:href="#me8056dbb7c" x="219.010938" y="249.661592" style="fill: #1a4e5d; stroke: #1a4e5d"/>
     <use xlink:href="#me8056dbb7c" x="239.935938" y="250.727917" style="fill: #1a4e5d; stroke: #1a4e5d"/>
     <use xlink:href="#me8056dbb7c" x="251.935784" y="251.334924" style="fill: #1a4e5d; stroke: #1a4e5d"/>
     <use xlink:href="#me8056dbb7c" x="263.102902" y="251.896991" style="fill: #1a4e5d; stroke: #1a4e5d"/>
     <use xlink:href="#me8056dbb7c" x="281.785937" y="252.831571" style="fill: #1a4e5d; stroke: #1a4e5d"/>
     <use xlink:href="#me8056dbb7c" x="294.063361" y="253.441993" style="fill: #1a4e5d; stroke: #1a4e5d"/>
     <use xlink:href="#me8056dbb7c" x="344.560938" y="255.925324" style="fill: #1a4e5d; stroke: #1a4e5d"/>
     <use xlink:href="#me8056dbb7c" x="373.638147" y="257.338713" style="fill: #1a4e5d; stroke: #1a4e5d"/>
     <use xlink:href="#me8056dbb7c" x="448.57954" y="260.94796" style="fill: #1a4e5d; stroke: #1a4e5d"/>
     <use xlink:href="#me8056dbb7c" x="511.533897" y="263.973561" style="fill: #1a4e5d; stroke: #1a4e5d"/>
     <use xlink:href="#me8056dbb7c" x="909.535938" y="285.679127" style="fill: #1a4e5d; stroke: #1a4e5d"/>
    </g>
   </g>
   <g id="line2d_24">
    <path d="M 72.535938 241.881111 
L 74.209938 241.881111 
L 76.093187 241.881111 
L 77.767188 241.881111 
L 79.441187 241.881111 
L 81.529417 241.881111 
L 82.998438 241.881111 
L 86.555688 241.881111 
L 88.502994 241.881111 
L 93.460938 241.881111 
L 94.421779 241.881111 
L 100.366188 241.881111 
L 106.14832 241.881111 
L 112.891295 241.881111 
L 114.385938 241.881111 
L 117.943187 241.881111 
L 123.977274 241.881111 
L 127.466198 241.881111 
L 134.935142 241.881111 
L 135.310938 241.881111 
L 138.142218 241.881111 
L 145.773438 241.881111 
L 152.947723 241.881111 
L 156.235938 241.881111 
L 159.793187 241.881111 
L 168.372437 241.881111 
L 177.160937 241.881111 
L 198.085938 241.881111 
L 204.581228 241.881111 
L 212.605325 241.881111 
L 219.010938 241.881111 
L 239.935938 241.881111 
L 251.935784 241.881111 
L 263.102902 241.881111 
L 281.785937 241.881111 
L 294.063361 241.881111 
L 344.560938 241.881111 
L 373.638147 241.881111 
L 448.57954 241.881111 
L 511.533897 241.881111 
L 909.535938 241.881111 
" clip-path="url(#pf0e4b42fb4)" style="fill: none; stroke-dasharray: 3.7,1.6; stroke-dashoffset: 0; stroke: #e75438"/>
   </g>
   <g id="text_16">
    <!-- Years_Employed DPD -->
    <g transform="translate(332.460156 128.260848)scale(0.3 -0.3)">
     <defs>
      <path id="DejaVuSans-59" d="M -13 4666 
L 666 4666 
L 1959 2747 
L 3244 4666 
L 3922 4666 
L 2272 2222 
L 2272 0 
L 1638 0 
L 1638 2222 
L -13 4666 
z
" transform="scale(0.015625)"/>
      <path id="DejaVuSans-73" d="M 2834 3397 
L 2834 2853 
Q 2591 2978 2328 3040 
Q 2066 3103 1784 3103 
Q 1356 3103 1142 2972 
Q 928 2841 928 2578 
Q 928 2378 1081 2264 
Q 1234 2150 1697 2047 
L 1894 2003 
Q 2506 1872 2764 1633 
Q 3022 1394 3022 966 
Q 3022 478 2636 193 
Q 2250 -91 1575 -91 
Q 1294 -91 989 -36 
Q 684 19 347 128 
L 347 722 
Q 666 556 975 473 
Q 1284 391 1588 391 
Q 1994 391 2212 530 
Q 2431 669 2431 922 
Q 2431 1156 2273 1281 
Q 2116 1406 1581 1522 
L 1381 1569 
Q 847 1681 609 1914 
Q 372 2147 372 2553 
Q 372 3047 722 3315 
Q 1072 3584 1716 3584 
Q 2034 3584 2315 3537 
Q 2597 3491 2834 3397 
z
" transform="scale(0.015625)"/>
      <path id="DejaVuSans-5f" d="M 3263 -1063 
L 3263 -1509 
L -63 -1509 
L -63 -1063 
L 3263 -1063 
z
" transform="scale(0.015625)"/>
      <path id="DejaVuSans-45" d="M 628 4666 
L 3578 4666 
L 3578 4134 
L 1259 4134 
L 1259 2753 
L 3481 2753 
L 3481 2222 
L 1259 2222 
L 1259 531 
L 3634 531 
L 3634 0 
L 628 0 
L 628 4666 
z
" transform="scale(0.015625)"/>
      <path id="DejaVuSans-6d" d="M 3328 2828 
Q 3544 3216 3844 3400 
Q 4144 3584 4550 3584 
Q 5097 3584 5394 3201 
Q 5691 2819 5691 2113 
L 5691 0 
L 5113 0 
L 5113 2094 
Q 5113 2597 4934 2840 
Q 4756 3084 4391 3084 
Q 3944 3084 3684 2787 
Q 3425 2491 3425 1978 
L 3425 0 
L 2847 0 
L 2847 2094 
Q 2847 2600 2669 2842 
Q 2491 3084 2119 3084 
Q 1678 3084 1418 2786 
Q 1159 2488 1159 1978 
L 1159 0 
L 581 0 
L 581 3500 
L 1159 3500 
L 1159 2956 
Q 1356 3278 1631 3431 
Q 1906 3584 2284 3584 
Q 2666 3584 2933 3390 
Q 3200 3197 3328 2828 
z
" transform="scale(0.015625)"/>
      <path id="DejaVuSans-70" d="M 1159 525 
L 1159 -1331 
L 581 -1331 
L 581 3500 
L 1159 3500 
L 1159 2969 
Q 1341 3281 1617 3432 
Q 1894 3584 2278 3584 
Q 2916 3584 3314 3078 
Q 3713 2572 3713 1747 
Q 3713 922 3314 415 
Q 2916 -91 2278 -91 
Q 1894 -91 1617 61 
Q 1341 213 1159 525 
z
M 3116 1747 
Q 3116 2381 2855 2742 
Q 2594 3103 2138 3103 
Q 1681 3103 1420 2742 
Q 1159 2381 1159 1747 
Q 1159 1113 1420 752 
Q 1681 391 2138 391 
Q 2594 391 2855 752 
Q 3116 1113 3116 1747 
z
" transform="scale(0.015625)"/>
      <path id="DejaVuSans-6c" d="M 603 4863 
L 1178 4863 
L 1178 0 
L 603 0 
L 603 4863 
z
" transform="scale(0.015625)"/>
      <path id="DejaVuSans-6f" d="M 1959 3097 
Q 1497 3097 1228 2736 
Q 959 2375 959 1747 
Q 959 1119 1226 758 
Q 1494 397 1959 397 
Q 2419 397 2687 759 
Q 2956 1122 2956 1747 
Q 2956 2369 2687 2733 
Q 2419 3097 1959 3097 
z
M 1959 3584 
Q 2709 3584 3137 3096 
Q 3566 2609 3566 1747 
Q 3566 888 3137 398 
Q 2709 -91 1959 -91 
Q 1206 -91 779 398 
Q 353 888 353 1747 
Q 353 2609 779 3096 
Q 1206 3584 1959 3584 
z
" transform="scale(0.015625)"/>
      <path id="DejaVuSans-79" d="M 2059 -325 
Q 1816 -950 1584 -1140 
Q 1353 -1331 966 -1331 
L 506 -1331 
L 506 -850 
L 844 -850 
Q 1081 -850 1212 -737 
Q 1344 -625 1503 -206 
L 1606 56 
L 191 3500 
L 800 3500 
L 1894 763 
L 2988 3500 
L 3597 3500 
L 2059 -325 
z
" transform="scale(0.015625)"/>
      <path id="DejaVuSans-64" d="M 2906 2969 
L 2906 4863 
L 3481 4863 
L 3481 0 
L 2906 0 
L 2906 525 
Q 2725 213 2448 61 
Q 2172 -91 1784 -91 
Q 1150 -91 751 415 
Q 353 922 353 1747 
Q 353 2572 751 3078 
Q 1150 3584 1784 3584 
Q 2172 3584 2448 3432 
Q 2725 3281 2906 2969 
z
M 947 1747 
Q 947 1113 1208 752 
Q 1469 391 1925 391 
Q 2381 391 2643 752 
Q 2906 1113 2906 1747 
Q 2906 2381 2643 2742 
Q 2381 3103 1925 3103 
Q 1469 3103 1208 2742 
Q 947 2381 947 1747 
z
" transform="scale(0.015625)"/>
      <path id="DejaVuSans-20" transform="scale(0.015625)"/>
      <path id="DejaVuSans-44" d="M 1259 4147 
L 1259 519 
L 2022 519 
Q 2988 519 3436 956 
Q 3884 1394 3884 2338 
Q 3884 3275 3436 3711 
Q 2988 4147 2022 4147 
L 1259 4147 
z
M 628 4666 
L 1925 4666 
Q 3281 4666 3915 4102 
Q 4550 3538 4550 2338 
Q 4550 1131 3912 565 
Q 3275 0 1925 0 
L 628 0 
L 628 4666 
z
" transform="scale(0.015625)"/>
      <path id="DejaVuSans-50" d="M 1259 4147 
L 1259 2394 
L 2053 2394 
Q 2494 2394 2734 2622 
Q 2975 2850 2975 3272 
Q 2975 3691 2734 3919 
Q 2494 4147 2053 4147 
L 1259 4147 
z
M 628 4666 
L 2053 4666 
Q 2838 4666 3239 4311 
Q 3641 3956 3641 3272 
Q 3641 2581 3239 2228 
Q 2838 1875 2053 1875 
L 1259 1875 
L 1259 0 
L 628 0 
L 628 4666 
z
" transform="scale(0.015625)"/>
     </defs>
     <use xlink:href="#DejaVuSans-59"/>
     <use xlink:href="#DejaVuSans-65" x="47.833984"/>
     <use xlink:href="#DejaVuSans-61" x="109.357422"/>
     <use xlink:href="#DejaVuSans-72" x="170.636719"/>
     <use xlink:href="#DejaVuSans-73" x="211.75"/>
     <use xlink:href="#DejaVuSans-5f" x="263.849609"/>
     <use xlink:href="#DejaVuSans-45" x="313.849609"/>
     <use xlink:href="#DejaVuSans-6d" x="377.033203"/>
     <use xlink:href="#DejaVuSans-70" x="474.445312"/>
     <use xlink:href="#DejaVuSans-6c" x="537.921875"/>
     <use xlink:href="#DejaVuSans-6f" x="565.705078"/>
     <use xlink:href="#DejaVuSans-79" x="626.886719"/>
     <use xlink:href="#DejaVuSans-65" x="686.066406"/>
     <use xlink:href="#DejaVuSans-64" x="747.589844"/>
     <use xlink:href="#DejaVuSans-20" x="811.066406"/>
     <use xlink:href="#DejaVuSans-44" x="842.853516"/>
     <use xlink:href="#DejaVuSans-50" x="919.855469"/>
     <use xlink:href="#DejaVuSans-44" x="980.158203"/>
    </g>
   </g>
  </g>
 </g>
 <defs>
  <clipPath id="pf0e4b42fb4">
   <rect x="72.535938" y="135.334286" width="837" height="388.285714"/>
  </clipPath>
 </defs>
</svg>
